<svg width="32" height="32" viewBox="0 0 32 32" xmlns="http://www.w3.org/2000/svg"><title>ICONS / T2</title><g fill="none" fill-rule="evenodd"><g fill="#020303"><g transform="translate(7 10)"><path d="M9.026 1.94H5.7v9.937H3.343V1.94H.034V.124h8.992V1.94zm8.94 9.937H11.4v-1.262l3.11-3.335c.45-.515.77-.95.958-1.304.19-.355.284-.684.284-.988 0-.405-.109-.736-.327-.994-.218-.257-.527-.386-.928-.386-.445 0-.783.15-1.014.452-.23.302-.346.704-.346 1.206h-1.876l-.013-.04c-.022-.867.263-1.602.855-2.203.592-.601 1.39-.901 2.394-.901.991 0 1.77.258 2.335.773.566.515.848 1.202.848 2.06a2.89 2.89 0 0 1-.478 1.608c-.32.49-.847 1.135-1.582 1.932l-1.71 1.869.013.033h4.041v1.48z"/></g></g></g></svg>