<svg width="32" height="32" viewBox="0 0 32 32" xmlns="http://www.w3.org/2000/svg"><title>ICONS / BOLD</title><g fill="none" fill-rule="evenodd"><g fill="#020303"><g transform="translate(9 7)"><path d="M.996 18V0h6.082c2.119 0 3.77.412 4.958 1.236 1.187.824 1.78 2.057 1.78 3.697 0 .832-.22 1.576-.661 2.231-.441.655-1.082 1.148-1.923 1.477 1.08.231 1.89.726 2.43 1.484.539.758.809 1.636.809 2.633 0 1.723-.568 3.027-1.706 3.913C11.628 17.557 10.017 18 7.93 18H.996zm3.61-7.962v5.193H7.93c.956 0 1.686-.208 2.189-.625.502-.416.754-1.032.754-1.848 0-.882-.215-1.555-.643-2.021-.43-.466-1.105-.699-2.028-.699H4.606zm0-2.497h2.596c.964 0 1.706-.198 2.225-.593.52-.396.779-.973.779-1.731 0-.832-.262-1.446-.785-1.842-.523-.396-1.304-.593-2.343-.593H4.606v4.759z"/></g></g></g></svg>