<svg width="32" height="32" viewBox="0 0 32 32" xmlns="http://www.w3.org/2000/svg"><title>ICONS / ITALIC</title><g fill="none" fill-rule="evenodd"><g fill="#020303"><g transform="translate(12 7)"><path d="M1.22 7.153v-.816c.233-.078.544-.195.972-.31.39-.118.816-.196 1.283-.274.466-.077.894-.155 1.322-.194.427-.039.816-.078 1.166-.078l.428.272-2.177 10.303h1.671v.855c-.194.156-.466.272-.738.428-.273.116-.584.233-.895.35a4.14 4.14 0 0 1-.933.233 7.567 7.567 0 0 1-.894.078c-.622 0-1.01-.117-1.244-.35-.233-.234-.35-.506-.35-.778 0-.31.04-.622.078-.933.04-.31.117-.622.194-1.01l1.633-7.426-1.516-.35zM3.242 1.75c0-.544.194-.972.544-1.283.35-.31.816-.466 1.4-.466.621 0 1.088.155 1.438.466.35.311.544.74.544 1.283 0 .506-.194.933-.544 1.205-.35.311-.855.467-1.439.467-.544 0-1.01-.156-1.399-.467-.35-.272-.544-.66-.544-1.205z"/></g></g></g></svg>