<svg width="32" height="32" viewBox="0 0 32 32" xmlns="http://www.w3.org/2000/svg"><title>ICONS / NUMBER LIST</title><g fill="none" fill-rule="evenodd"><g><g transform="translate(3 8)"><path d="M5 1.5h20M5 8h20M5 14.5h20" stroke="#020303" stroke-linecap="round" stroke-linejoin="round"/><path fill="#231F20" d="M2.0747 3L1.5017 3 1.5017 0.725 0.7527 0.993 0.7527 0.5 2.0437 0.033 2.0747 0.033z"/><g transform="translate(0 6)" fill="#231F20"><path d="M1.258 8.269h.308c.154 0 .269-.04.344-.117a.425.425 0 0 0 .112-.307.48.48 0 0 0-.026-.16.315.315 0 0 0-.076-.124.338.338 0 0 0-.13-.081.541.541 0 0 0-.182-.028.52.52 0 0 0-.16.024.427.427 0 0 0-.13.07.327.327 0 0 0-.121.258H.63c0-.121.024-.23.074-.33a.776.776 0 0 1 .204-.256.985.985 0 0 1 .307-.166A1.431 1.431 0 0 1 2 7.047c.122.036.226.09.313.16.087.073.155.16.203.266a.879.879 0 0 1 .073.366.647.647 0 0 1-.113.365.752.752 0 0 1-.136.154.87.87 0 0 1-.187.12.751.751 0 0 1 .364.272c.039.06.069.124.088.195a.86.86 0 0 1 .028.224.836.836 0 0 1-.08.37.782.782 0 0 1-.217.275.997.997 0 0 1-.33.17 1.428 1.428 0 0 1-.78.006.983.983 0 0 1-.321-.158.806.806 0 0 1-.225-.263.798.798 0 0 1-.084-.375h.566c0 .056.01.109.033.158.02.048.052.09.092.124a.495.495 0 0 0 .321.111.475.475 0 0 0 .338-.114.402.402 0 0 0 .123-.31.553.553 0 0 0-.035-.206.358.358 0 0 0-.101-.14.416.416 0 0 0-.158-.081.75.75 0 0 0-.21-.028h-.307v-.44zM2.627 3.12H.604v-.388l.96-1.03c.074-.082.137-.156.189-.223.051-.066.093-.127.125-.182a.7.7 0 0 0 .069-.154.484.484 0 0 0-.087-.447.36.36 0 0 0-.125-.083.45.45 0 0 0-.159-.028c-.157 0-.273.044-.35.131a.53.53 0 0 0-.115.364H.543A.946.946 0 0 1 .831.397a1.01 1.01 0 0 1 .332-.209c.13-.05.274-.076.431-.076.151 0 .284.022.4.064a.817.817 0 0 1 .292.176.764.764 0 0 1 .178.275.973.973 0 0 1 .015.634c-.03.088-.074.176-.13.263a2.267 2.267 0 0 1-.203.266 6.42 6.42 0 0 1-.263.284l-.558.591h1.302v.455z"/></g></g></g></g></svg>