<?xml version="1.0" encoding="UTF-8"?>
<svg width="26px" height="20px" viewBox="0 0 26 20" version="1.1" xmlns="http://www.w3.org/2000/svg" xmlns:xlink="http://www.w3.org/1999/xlink">
    <!-- Generator: Sketch 44.1 (41455) - http://www.bohemiancoding.com/sketch -->
    <title>Group 6</title>
    <desc>Created with Sketch.</desc>
    <defs></defs>
    <g id="Desktop-6-[layout]" stroke="none" stroke-width="1" fill="none" fill-rule="evenodd">
        <g id="Caso-04a-Autor-@2x-Copy-19" transform="translate(-369.000000, -329.000000)" fill="#000000">
            <g id="Group-8" transform="translate(185.000000, 323.000000)">
                <g id="Group-6" transform="translate(184.000000, 5.000000)">
                    <path d="M25.3060667,17 L6.69439622,17 C6.31108951,17 6,17.3278049 6,17.7317073 C6,18.1356098 6.31108951,18.4634146 6.69439622,18.4634146 L25.3056038,18.4634146 C25.6889105,18.4634146 26,18.1356098 26,17.7317073 C26,17.3278049 25.6893734,17 25.3060667,17 Z" id="Shape-Copy" fill-rule="nonzero"></path>
                    <path d="M25.3060667,10 L6.69439622,10 C6.31108951,10 6,10.3278049 6,10.7317073 C6,11.1356098 6.31108951,11.4634146 6.69439622,11.4634146 L25.3056038,11.4634146 C25.6889105,11.4634146 26,11.1356098 26,10.7317073 C26,10.3278049 25.6893734,10 25.3060667,10 Z" id="Shape-Copy-2" fill-rule="nonzero"></path>
                    <path d="M6.69439622,4.46341463 L25.3056038,4.46341463 C25.6889105,4.46341463 26,4.13560976 26,3.73170732 C26,3.32780488 25.6889105,3 25.3056038,3 L6.69439622,3 C6.31108951,3 6,3.32780488 6,3.73170732 C6,4.13560976 6.31108951,4.46341463 6.69439622,4.46341463 Z" id="Shape-Copy-3" fill-rule="nonzero"></path>
                    <text id="1" font-family="Roboto-Black, Roboto, Franklin Gothic Medium, Tahoma, sans-serif" font-size="6" font-weight="700">
                        <tspan x="0" y="6">1</tspan>
                    </text>
                    <text id="2" font-family="Roboto-Black, Roboto, Franklin Gothic Medium, Tahoma, sans-serif" font-size="6" font-weight="700">
                        <tspan x="0" y="13">2</tspan>
                    </text>
                    <text id="3" font-family="Roboto-Black, Roboto, Franklin Gothic Medium, Tahoma, sans-serif" font-size="6" font-weight="700">
                        <tspan x="0" y="20">3</tspan>
                    </text>
                </g>
            </g>
        </g>
    </g>
</svg>
